<?xml version="1.0" encoding="UTF-8" standalone="no"?>
<!DOCTYPE svg PUBLIC "-//W3C//DTD SVG 1.1//EN" "http://www.w3.org/Graphics/SVG/1.1/DTD/svg11.dtd">
<svg width="100%" height="100%" viewBox="0 0 512 512" version="1.1" xmlns="http://www.w3.org/2000/svg" xmlns:xlink="http://www.w3.org/1999/xlink" xml:space="preserve" xmlns:serif="http://www.serif.com/" style="fill-rule:evenodd;clip-rule:evenodd;stroke-linecap:round;stroke-linejoin:round;stroke-miterlimit:10;">
    <rect x="0" y="0" width="512" height="512" style="fill:white;fill-opacity:0.7;"/>
    <g transform="matrix(1.77727,0,0,1.77727,-198.061,-173.174)">
        <ellipse id="XMLID_2_" cx="256.922" cy="249.6" rx="116.736" ry="105.37" style="fill:rgb(143,227,249);"/>
        <ellipse id="XMLID_188_" cx="256.922" cy="249.6" rx="116.736" ry="105.37" style="fill:rgb(143,227,249);"/>
        <path id="XMLID_193_" d="M259.994,352.922C286.669,352.922 311.245,345.088 330.906,331.93L325.53,319.283C314.266,292.71 287.539,275.354 257.894,275.354C228.25,275.354 201.523,292.71 190.259,319.283L185.856,329.728C205.978,344.218 231.834,352.922 259.994,352.922Z" style="fill:rgb(178,235,249);fill-rule:nonzero;"/>
        <path id="XMLID_189_" d="M256.87,240.794L234.547,273.562L251.392,295.987C254.157,299.674 259.738,299.674 262.502,295.987L279.194,273.562L256.87,240.794Z" style="fill:rgb(164,224,234);fill-rule:nonzero;"/>
        <path id="XMLID_192_" d="M256.922,342.682C194.714,342.682 143.923,298.803 140.39,243.456C140.237,245.504 140.186,247.552 140.186,249.6C140.186,307.763 192.461,354.97 256.922,354.97C321.382,354.97 373.658,307.814 373.658,249.6C373.658,247.552 373.606,245.504 373.453,243.456C369.92,298.803 319.078,342.682 256.922,342.682Z" style="fill:rgb(122,209,229);fill-rule:nonzero;"/>
        <path id="XMLID_76_" d="M326.963,321.587C307.456,334.797 283.187,342.682 256.922,342.682C231.322,342.682 207.667,335.258 188.467,322.662L185.907,328.96C206.08,343.91 231.885,352.922 260.045,352.922C285.491,352.922 309.043,345.549 328.243,333.056C329.165,332.442 330.035,331.776 330.957,331.11L326.963,321.587Z" style="fill:rgb(164,224,234);fill-rule:nonzero;"/>
        <path id="XMLID_186_" d="M137.318,249.958C140.595,256.666 144.998,262.912 150.528,268.493C177.306,295.27 220.774,295.27 247.552,268.493C269.978,246.067 273.613,212.019 258.56,185.805" style="fill:rgb(122,209,229);fill-rule:nonzero;"/>
        <path id="XMLID_185_" d="M373.248,257.946C360.96,276.429 339.968,288.563 316.109,288.563C278.221,288.563 247.501,257.843 247.501,219.955C247.501,203.059 253.594,187.597 263.731,175.616" style="fill:rgb(122,209,229);fill-rule:nonzero;"/>
        <ellipse id="XMLID_75_" cx="256.922" cy="249.6" rx="116.736" ry="105.37" style="fill:none;stroke:rgb(65,61,81);stroke-width:8.19px;"/>
        <path id="XMLID_74_" d="M256.87,226.458L234.547,259.226L256.973,289.075L279.245,259.226L256.87,226.458Z" style="fill:rgb(65,61,81);fill-rule:nonzero;"/>
        <path id="XMLID_73_" d="M256.87,226.458L234.547,259.226L256.973,289.075L279.245,259.226L256.87,226.458Z" style="fill:none;fill-rule:nonzero;stroke:rgb(65,61,81);stroke-width:8.19px;"/>
        <path id="XMLID_72_" d="M307.558,155.597C292.198,148.429 274.739,144.384 256.358,144.384C237.978,144.384 220.518,148.429 205.158,155.597L205.158,227.328L307.558,227.328L307.558,155.597Z" style="fill:rgb(65,61,81);fill-rule:nonzero;"/>
        <g id="XMLID_58_">
            <path id="XMLID_71_" d="M314.112,162.765L369.766,161.075C361.728,181.197 360.653,211.456 367.667,244.531C358.758,263.373 339.814,276.736 317.542,277.402C285.901,278.374 259.43,253.491 258.509,221.798C257.536,190.157 282.419,163.738 314.112,162.765Z" style="fill:rgb(65,61,81);fill-rule:nonzero;"/>
            <path id="XMLID_70_" d="M314.112,162.765L369.766,161.075C361.728,181.197 360.653,211.456 367.667,244.531C358.758,263.373 339.814,276.736 317.542,277.402C285.901,278.374 259.43,253.491 258.509,221.798C257.536,190.157 282.419,163.738 314.112,162.765Z" style="fill:none;fill-rule:nonzero;stroke:rgb(65,61,81);stroke-width:8.19px;"/>
            <circle id="XMLID_69_" cx="316.109" cy="220.006" r="57.344" style="fill:rgb(247,232,173);"/>
            <circle id="XMLID_5_" cx="316.109" cy="220.006" r="57.344" style="fill:rgb(247,232,173);"/>
            <path id="XMLID_86_" d="M356.659,179.456C345.651,168.448 331.213,162.867 316.774,162.662C327.629,164.762 338.022,169.984 346.419,178.432C368.794,200.806 368.794,237.107 346.419,259.533C335.053,270.899 320.102,276.48 305.254,276.326C323.328,279.808 342.682,274.534 356.659,260.557C379.034,238.131 379.034,201.83 356.659,179.456Z" style="fill:rgb(247,214,161);fill-rule:nonzero;"/>
            <g id="XMLID_3_" transform="matrix(0.7071,-0.7071,0.7071,0.7071,-66.9824,278.295)">
                <ellipse cx="302.438" cy="220.006" rx="43.008" ry="43.315" style="fill:white;fill-opacity:0.7;"/>
            </g>
            <path id="XMLID_12_" d="M364.237,192.819C362.65,190.771 359.578,185.139 357.683,183.245C335.155,161.024 298.854,161.229 276.634,183.808C272.23,188.262 268.698,193.28 266.086,198.656C297.677,187.546 332.288,190.208 364.237,192.819Z" style="fill:rgb(239,202,146);fill-rule:nonzero;"/>
            <circle id="XMLID_68_" cx="316.109" cy="220.006" r="57.344" style="fill:none;stroke:rgb(65,61,81);stroke-width:8.19px;"/>
            <circle id="XMLID_67_" cx="316.109" cy="220.006" r="57.344" style="fill:none;stroke:rgb(65,61,81);stroke-width:8.19px;"/>
            <path id="XMLID_66_" d="M361.83,185.395C360.243,183.347 358.554,181.35 356.659,179.456C334.285,157.082 297.984,157.082 275.558,179.456C271.104,183.91 267.571,188.877 264.909,194.202C296.653,183.347 329.882,182.528 361.83,185.395Z" style="fill:rgb(65,61,81);fill-rule:nonzero;"/>
            <circle id="XMLID_57_" cx="288.205" cy="224.307" r="21.504" style="fill:rgb(65,61,81);"/>
            <circle id="XMLID_56_" cx="276.019" cy="224.461" r="7.168" style="fill:white;"/>
        </g>
        <g id="XMLID_26_">
            <path id="XMLID_89_" d="M199.066,162.765L143.36,161.075C151.398,181.197 152.474,211.456 145.459,244.531C154.368,263.373 173.312,276.736 195.584,277.402C227.226,278.374 253.696,253.491 254.618,221.798C255.59,190.157 230.707,163.738 199.066,162.765Z" style="fill:rgb(65,61,81);fill-rule:nonzero;"/>
            <path id="XMLID_88_" d="M199.066,162.765L143.36,161.075C151.398,181.197 152.474,211.456 145.459,244.531C154.368,263.373 173.312,276.736 195.584,277.402C227.226,278.374 253.696,253.491 254.618,221.798C255.59,190.157 230.707,163.738 199.066,162.765Z" style="fill:none;fill-rule:nonzero;stroke:rgb(65,61,81);stroke-width:8.19px;"/>
            <circle id="XMLID_87_" cx="197.018" cy="220.006" r="57.344" style="fill:rgb(247,232,173);"/>
            <circle id="XMLID_84_" cx="197.018" cy="220.006" r="57.344" style="fill:rgb(247,232,173);"/>
            <path id="XMLID_65_" d="M156.467,179.456C167.475,168.448 181.914,162.867 196.352,162.662C185.498,164.762 175.104,169.984 166.707,178.432C144.333,200.806 144.333,237.107 166.707,259.533C178.074,270.899 193.024,276.48 207.872,276.326C189.798,279.808 170.445,274.534 156.467,260.557C134.093,238.131 134.093,201.83 156.467,179.456Z" style="fill:rgb(247,214,161);fill-rule:nonzero;"/>
            <g id="XMLID_64_" transform="matrix(0.7071,-0.7071,0.7071,0.7071,-93.8506,213.428)">
                <ellipse cx="210.688" cy="220.006" rx="43.315" ry="43.008" style="fill:white;fill-opacity:0.7;"/>
            </g>
            <path id="XMLID_63_" d="M148.941,192.819C150.528,190.771 153.6,185.139 155.494,183.245C178.022,161.024 214.323,161.229 236.544,183.808C240.947,188.262 244.48,193.28 247.091,198.656C215.45,187.546 180.838,190.208 148.941,192.819Z" style="fill:rgb(239,202,146);fill-opacity:0.89;fill-rule:nonzero;"/>
            <circle id="XMLID_62_" cx="197.018" cy="220.006" r="57.344" style="fill:none;stroke:rgb(65,61,81);stroke-width:8.19px;"/>
            <circle id="XMLID_61_" cx="197.018" cy="220.006" r="57.344" style="fill:none;stroke:rgb(65,61,81);stroke-width:8.19px;"/>
            <path id="XMLID_60_" d="M151.347,185.395C152.934,183.347 154.624,181.35 156.518,179.456C178.893,157.082 215.194,157.082 237.619,179.456C242.074,183.91 245.606,188.877 248.269,194.202C216.525,183.347 183.245,182.528 151.347,185.395Z" style="fill:rgb(65,61,81);fill-rule:nonzero;"/>
            <circle id="XMLID_59_" cx="224.973" cy="224.307" r="21.504" style="fill:rgb(65,61,81);"/>
            <circle id="XMLID_37_" cx="237.158" cy="224.461" r="7.168" style="fill:white;"/>
        </g>
        <path id="XMLID_19_" d="M229.325,367.77C224.819,367.77 221.133,364.083 221.133,359.578L221.133,350.362C221.133,345.856 224.819,342.17 229.325,342.17C233.83,342.17 237.517,345.856 237.517,350.362L237.517,359.578C237.517,364.083 233.882,367.77 229.325,367.77Z" style="fill:rgb(65,61,81);fill-rule:nonzero;"/>
        <path id="XMLID_17_" d="M212.941,367.77C208.435,367.77 204.749,364.083 204.749,359.578L204.749,350.362C204.749,345.856 208.435,342.17 212.941,342.17C217.446,342.17 221.133,345.856 221.133,350.362L221.133,359.578C221.133,364.083 217.498,367.77 212.941,367.77Z" style="fill:rgb(65,61,81);fill-rule:nonzero;"/>
        <path id="XMLID_16_" d="M245.606,367.77C241.101,367.77 237.414,364.083 237.414,359.578L237.414,350.362C237.414,345.856 241.101,342.17 245.606,342.17C250.112,342.17 253.798,345.856 253.798,350.362L253.798,359.578C253.798,364.083 250.112,367.77 245.606,367.77Z" style="fill:rgb(65,61,81);fill-rule:nonzero;"/>
        <path id="XMLID_15_" d="M267.213,367.77C262.707,367.77 259.021,364.083 259.021,359.578L259.021,350.362C259.021,345.856 262.707,342.17 267.213,342.17C271.718,342.17 275.405,345.856 275.405,350.362L275.405,359.578C275.405,364.083 271.718,367.77 267.213,367.77Z" style="fill:rgb(65,61,81);fill-rule:nonzero;"/>
        <path id="XMLID_14_" d="M283.494,367.77C278.989,367.77 275.302,364.083 275.302,359.578L275.302,350.362C275.302,345.856 278.989,342.17 283.494,342.17C288,342.17 291.686,345.856 291.686,350.362L291.686,359.578C291.686,364.083 288,367.77 283.494,367.77Z" style="fill:rgb(65,61,81);fill-rule:nonzero;"/>
        <path id="XMLID_13_" d="M299.878,367.77C295.373,367.77 291.686,364.083 291.686,359.578L291.686,350.362C291.686,345.856 295.373,342.17 299.878,342.17C304.384,342.17 308.07,345.856 308.07,350.362L308.07,359.578C308.07,364.083 304.384,367.77 299.878,367.77Z" style="fill:rgb(65,61,81);fill-rule:nonzero;"/>
        <path id="XMLID_11_" d="M251.853,300.851C251.853,305.152 248.371,308.634 244.07,308.634C239.77,308.634 236.288,305.152 236.288,300.851" style="fill:none;fill-rule:nonzero;stroke:rgb(65,61,81);stroke-width:4.1px;"/>
        <path id="XMLID_9_" d="M275.661,300.851C275.661,305.152 272.179,308.634 267.878,308.634C263.578,308.634 260.096,305.152 260.096,300.851" style="fill:none;fill-rule:nonzero;stroke:rgb(65,61,81);stroke-width:4.1px;"/>
        <path id="XMLID_10_" d="M165.376,280.986C164.25,283.392 161.434,284.467 158.976,283.341C156.518,282.214 155.494,279.398 156.621,276.941" style="fill:none;fill-rule:nonzero;stroke:rgb(114,200,214);stroke-opacity:0.31;stroke-width:4.1px;"/>
        <path id="XMLID_1_" d="M180.634,288.922C179.507,291.328 176.691,292.403 174.234,291.277C171.827,290.15 170.752,287.334 171.878,284.877" style="fill:none;fill-rule:nonzero;stroke:rgb(114,200,214);stroke-opacity:0.31;stroke-width:4.1px;"/>
        <path id="XMLID_78_" d="M171.776,295.014C170.65,297.421 167.834,298.496 165.376,297.37C162.97,296.243 161.894,293.427 163.021,290.97" style="fill:none;fill-rule:nonzero;stroke:rgb(114,200,214);stroke-opacity:0.31;stroke-width:4.1px;"/>
        <path id="XMLID_77_" d="M185.19,305.203C184.064,307.61 181.248,308.685 178.79,307.558C176.384,306.432 175.309,303.616 176.435,301.158" style="fill:none;fill-rule:nonzero;stroke:rgb(114,200,214);stroke-opacity:0.31;stroke-width:4.1px;"/>
        <path id="XMLID_79_" d="M195.43,295.987C194.304,298.394 191.488,299.469 189.03,298.342C186.624,297.216 185.549,294.4 186.675,291.942" style="fill:none;fill-rule:nonzero;stroke:rgb(114,200,214);stroke-opacity:0.31;stroke-width:4.1px;"/>
        <path id="XMLID_85_" d="M350.054,282.01C351.181,284.416 353.997,285.491 356.454,284.365C358.912,283.238 359.936,280.422 358.81,277.965" style="fill:none;fill-rule:nonzero;stroke:rgb(114,200,214);stroke-opacity:0.31;stroke-width:4.1px;"/>
        <path id="XMLID_83_" d="M334.848,289.946C335.974,292.352 338.79,293.427 341.248,292.301C343.654,291.174 344.73,288.358 343.603,285.901" style="fill:none;fill-rule:nonzero;stroke:rgb(114,200,214);stroke-opacity:0.31;stroke-width:4.1px;"/>
        <path id="XMLID_82_" d="M343.654,296.038C344.781,298.445 347.597,299.52 350.054,298.394C352.461,297.267 353.536,294.451 352.41,291.994" style="fill:none;fill-rule:nonzero;stroke:rgb(114,200,214);stroke-opacity:0.31;stroke-width:4.1px;"/>
        <path id="XMLID_81_" d="M330.291,306.227C331.418,308.634 334.234,309.709 336.691,308.582C339.098,307.456 340.173,304.64 339.046,302.182" style="fill:none;fill-rule:nonzero;stroke:rgb(114,200,214);stroke-opacity:0.31;stroke-width:4.1px;"/>
        <path id="XMLID_80_" d="M320.051,297.011C321.178,299.418 323.994,300.493 326.451,299.366C328.858,298.24 329.933,295.424 328.806,292.966" style="fill:none;fill-rule:nonzero;stroke:rgb(114,200,214);stroke-opacity:0.31;stroke-width:4.1px;"/>
        <path id="XMLID_8_" d="M239.974,319.539C239.974,323.84 236.493,327.322 232.192,327.322C227.891,327.322 224.41,323.84 224.41,319.539" style="fill:none;fill-rule:nonzero;stroke:rgb(65,61,81);stroke-width:4.1px;"/>
        <path id="XMLID_7_" d="M263.782,319.539C263.782,323.84 260.301,327.322 256,327.322C251.699,327.322 248.218,323.84 248.218,319.539" style="fill:none;fill-rule:nonzero;stroke:rgb(65,61,81);stroke-width:4.1px;"/>
        <path id="XMLID_6_" d="M287.59,319.539C287.59,323.84 284.109,327.322 279.808,327.322C275.507,327.322 272.026,323.84 272.026,319.539" style="fill:none;fill-rule:nonzero;stroke:rgb(65,61,81);stroke-width:4.1px;"/>
    </g>
</svg>
